<svg width="105" height="26" fill="none" xmlns="http://www.w3.org/2000/svg"><mask id="prefix__a" mask-type="alpha" maskUnits="userSpaceOnUse" x="0" y="1" width="25" height="24"><circle cx="12.996" cy="13" r="11.999" fill="#fff"/></mask><g mask="url(#prefix__a)"><path fill="#A9E6FD" d="M.997 1.001h23.997v23.997H.997z"/><path fill-rule="evenodd" clip-rule="evenodd" d="M12.998.829C19.628.829 25 6.27 25 12.982c0 .539-.034 1.069-.101 1.588h-.002a.258.258 0 0 1-.005.025c-.238.931-7.547.592-12.157-.186-5.056-.854-11.523-2.458-11.526-3.71h-.005C2.26 5.079 7.14.829 12.998.829z" fill="url(#prefix__b)"/><path fill-rule="evenodd" clip-rule="evenodd" d="M12.736 14.409c4.61.777 11.918 1.117 12.157.186.238-.932-4.545-2.59-11.085-3.666-1.592-.262-12.329-1.82-12.599-.23 0 1.252 6.47 2.856 11.527 3.71z" fill="#D12000"/><path fill-rule="evenodd" clip-rule="evenodd" d="M14.563 4.454a.765.765 0 0 1 .615.885l-2.49 14.5a1.833 1.833 0 0 0 1.475 2.122 1.815 1.815 0 0 0 2.096-1.493l.097-.568a.757.757 0 0 1 .875-.623.764.764 0 0 1 .615.885l-.098.568c-.314 1.83-2.036 3.058-3.844 2.74-1.808-.32-3.02-2.062-2.705-3.893l2.49-14.5a.757.757 0 0 1 .874-.623z" fill="#000"/><path fill-rule="evenodd" clip-rule="evenodd" d="M12.998.829C19.628.829 25 6.27 25 12.982c0 .539-.034 1.069-.101 1.588h-.002c.15-.935-4.607-2.575-11.09-3.641-1.591-.262-12.328-1.82-12.598-.23h-.005C2.26 5.079 7.14.829 12.998.829z" fill="url(#prefix__c)"/></g><path d="M31.294 3.932V22h3.146V6.376h5.615V22H43.2V3.932H31.294zM51.042 8.664c-3.406 0-5.772 2.417-5.772 6.81 0 4.368 2.366 6.786 5.772 6.786 3.405 0 5.77-2.418 5.77-6.811 0-4.368-2.365-6.785-5.77-6.785zm0 11.152c-1.716 0-2.574-1.326-2.574-4.341 0-3.042.858-4.368 2.574-4.368 1.715 0 2.573 1.326 2.573 4.342 0 3.041-.858 4.367-2.573 4.367zM58.89 8.924V22h3.094V11.367h4.783V8.924H58.89zM73.332 8.664c-3.406 0-5.771 2.417-5.771 6.81 0 4.368 2.365 6.786 5.77 6.786 3.406 0 5.772-2.418 5.772-6.811 0-4.368-2.365-6.785-5.771-6.785zm0 11.152c-1.716 0-2.574-1.326-2.574-4.341 0-3.042.858-4.368 2.574-4.368 1.716 0 2.574 1.326 2.574 4.342 0 3.041-.858 4.367-2.574 4.367zM92.24 19.556h-1.378V8.924H81.84v1.117c0 3.198-.208 7.331-1.3 9.515h-.962v5.434h2.86V22h6.94v2.99h2.86v-5.434zm-4.472 0h-4.367c.858-1.976 1.092-5.537 1.092-7.799v-.39h3.275v8.19zM103.573 13.083c0-3.172-1.612-4.367-4.887-4.367-2.054 0-3.666.65-4.602 1.195v2.574c.832-.624 2.652-1.3 4.238-1.3 1.481 0 2.157.52 2.157 1.924v.728h-.493c-4.732 0-6.838 1.56-6.838 4.211 0 2.652 1.612 4.134 4.004 4.134 1.82 0 2.6-.598 3.197-1.222h.13c.026.338.13.78.234 1.04h3.016a32.91 32.91 0 0 1-.156-3.198v-5.719zm-3.094 5.797c-.39.572-1.117 1.04-2.21 1.04-1.3 0-1.95-.78-1.95-1.95 0-1.533 1.067-2.08 3.718-2.08h.442v2.99z" fill="#000"/><defs><linearGradient id="prefix__b" x1="14.745" y1="3.501" x2="12.496" y2="15.75" gradientUnits="userSpaceOnUse"><stop stop-color="#FC3F1D"/><stop offset="1" stop-color="#FD8974"/></linearGradient><linearGradient id="prefix__c" x1="14.831" y1="4.839" x2="11.806" y2="23.074" gradientUnits="userSpaceOnUse"><stop stop-color="#FC3F1D"/><stop offset="1" stop-color="#FC3F1D" stop-opacity="0"/></linearGradient></defs></svg>
